<svg width="254" height="65" viewBox="0 0 254 65" fill="none" xmlns="http://www.w3.org/2000/svg">
<path d="M17.8127 37.1611H7.02441V45.2008H16.9378V51.1855H7.02441V63.9098H0.138672V31.1525H17.8127V37.1611ZM30.3089 64.4818C26.6708 64.4818 23.8104 63.389 21.7277 61.2035C19.645 59.0178 18.6036 56.0519 18.6036 52.3058C18.6036 48.4359 19.6837 45.4091 21.8439 43.2254C24.004 41.0415 26.9253 39.9487 30.6079 39.947C34.2329 39.947 37.0752 41.0397 39.1349 43.2254C41.1944 45.4109 42.2251 48.3008 42.2267 51.8953C42.2267 55.7792 41.164 58.8475 39.0384 61.1001C36.9129 63.3529 34.003 64.48 30.3089 64.4818ZM30.4795 45.4762C28.8878 45.4762 27.652 46.0623 26.7721 47.2346C25.8922 48.4068 25.4515 50.0663 25.4499 52.213C25.4499 56.7078 27.1412 58.9543 30.5239 58.9525C33.7502 58.9525 35.3632 56.6451 35.3632 52.0303C35.3665 47.6609 33.7411 45.4762 30.4869 45.4762H30.4795ZM64.9849 63.9098H58.2771V60.3561H58.1707C56.5065 63.1136 54.2822 64.4924 51.4975 64.4924C46.4342 64.4854 43.9025 61.1999 43.9025 54.636V40.5189H50.6177V54.0005C50.6177 57.3054 51.8395 58.9578 54.283 58.9578C54.8309 58.9806 55.3767 58.8704 55.8792 58.6351C56.3817 58.3998 56.828 58.0457 57.1846 57.5994C57.9079 56.6937 58.2705 55.4641 58.2721 53.9105V40.5189H64.9873L64.9849 63.9098ZM88.2467 63.9098H81.5391V50.9128C81.5391 47.2867 80.3313 45.4745 77.9155 45.4762C77.3666 45.4651 76.8224 45.5889 76.3242 45.8381C75.8269 46.0874 75.3889 46.4554 75.0439 46.9141C74.2891 47.8728 73.9132 49.0909 73.9141 50.5686V63.9098H67.1697V40.5189H73.9075V44.2263H73.9912C75.5976 41.3804 77.9362 39.9566 81.0052 39.9548C85.8395 39.9548 88.2561 43.1679 88.2543 49.5941L88.2467 63.9098ZM112.587 63.9098H105.857V60.6897H105.772C104.236 63.216 101.984 64.48 99.0178 64.4818C96.2891 64.4818 94.0943 63.4499 92.4315 61.3861C90.7687 59.3224 89.9378 56.4403 89.9378 52.74C89.9378 48.8703 90.8542 45.7711 92.6862 43.4425C94.5182 41.1138 96.9208 39.9487 99.893 39.947C102.709 39.947 104.671 41.0282 105.778 43.1909H105.862V29.2803H112.599L112.587 63.9098ZM105.978 52.5229V50.7646C106.022 49.3795 105.582 48.0266 104.742 46.9724C104.306 46.4679 103.772 46.0724 103.177 45.8142C102.582 45.5558 101.942 45.4411 101.301 45.478C100.66 45.5148 100.035 45.7026 99.47 46.0277C98.9041 46.3528 98.4125 46.8074 98.0299 47.3591C97.1896 48.6178 96.7694 50.3426 96.7713 52.5335C96.7713 54.5919 97.1764 56.1755 97.9848 57.2842C98.7941 58.3929 99.9174 58.949 101.354 58.9525C102 58.9661 102.641 58.8137 103.221 58.5078C103.802 58.2018 104.306 57.7515 104.691 57.1942C105.553 56.0202 105.986 54.4666 105.986 52.5335L105.978 52.5229ZM135.182 54.2653H120.941C121.168 57.6602 123.166 59.3577 126.932 59.3577C129.335 59.3577 131.445 58.7486 133.264 57.5305V62.7393C131.246 63.8974 128.623 64.4765 125.397 64.4765C121.872 64.4765 119.137 63.4296 117.189 61.3358C115.242 59.2421 114.268 56.323 114.268 52.5785C114.268 48.6945 115.32 45.6192 117.423 43.3525C119.528 41.0856 122.115 39.9505 125.185 39.947C128.367 39.947 130.83 40.9602 132.572 42.987C134.314 45.0137 135.183 47.7624 135.182 51.2333V54.2653ZM128.936 49.8324C128.936 46.4781 127.671 44.801 125.14 44.801C124.603 44.8029 124.072 44.9329 123.588 45.1817C123.103 45.4303 122.676 45.7915 122.338 46.2389C121.528 47.2491 121.026 48.5002 120.898 49.8244L128.936 49.8324ZM151.366 47.0227C150.491 46.5368 149.516 46.2954 148.531 46.3209C147.064 46.3209 145.92 46.8956 145.098 48.0449C144.275 49.1942 143.864 50.7592 143.862 52.74V63.9098H137.124V40.5189H143.862V44.8592H143.946C145.012 41.692 146.931 40.1084 149.702 40.1084C150.268 40.0797 150.833 40.1697 151.366 40.3733V47.0227ZM152.898 63.2928V57.4431C153.936 58.1204 155.049 58.6542 156.212 59.032C157.224 59.3686 158.276 59.5469 159.337 59.5615C160.529 59.5615 161.471 59.385 162.161 59.032C162.852 58.6789 163.196 58.1493 163.194 57.4431C163.199 57.2278 163.159 57.0142 163.079 56.817C162.998 56.62 162.878 56.444 162.727 56.3017C162.369 55.9681 161.961 55.6999 161.521 55.5073C160.997 55.2648 160.461 55.0586 159.913 54.8903C159.329 54.7138 158.767 54.5081 158.226 54.2733C157.437 53.9601 156.671 53.5822 155.936 53.1426C155.314 52.7724 154.752 52.2977 154.272 51.7364C153.821 51.1963 153.473 50.5665 153.249 49.8827C152.999 49.0797 152.881 48.2369 152.898 47.3908C152.869 46.2071 153.144 45.0377 153.697 44.0118C154.227 43.0693 154.957 42.2744 155.83 41.692C156.768 41.0686 157.798 40.6209 158.877 40.368C160.048 40.0818 161.247 39.9397 162.448 39.9443C163.434 39.9454 164.418 40.0259 165.392 40.1853C166.386 40.3446 167.369 40.5773 168.333 40.8817V46.4428C167.479 45.9136 166.559 45.516 165.601 45.2618C164.665 45 163.703 44.8657 162.735 44.8618C162.32 44.8608 161.906 44.9025 161.499 44.9863C161.141 45.0591 160.794 45.182 160.465 45.3518C160.188 45.4937 159.947 45.7053 159.761 45.9688C159.595 46.2187 159.509 46.5196 159.514 46.8267C159.508 47.2315 159.646 47.6237 159.9 47.9231C160.18 48.2525 160.515 48.522 160.888 48.7175C161.332 48.9534 161.791 49.1526 162.263 49.3133C162.767 49.4898 163.268 49.6664 163.768 49.8429C164.599 50.1505 165.412 50.5167 166.197 50.9393C166.88 51.304 167.509 51.7742 168.063 52.3349C168.579 52.8626 168.986 53.5004 169.257 54.2071C169.592 55.2002 169.727 56.2578 169.653 57.3106C169.579 58.3635 169.298 59.3878 168.829 60.3163C168.276 61.2932 167.513 62.1154 166.605 62.7155C165.614 63.3583 164.527 63.8142 163.393 64.0634C162.149 64.3482 160.88 64.4902 159.608 64.4871C157.323 64.5132 155.052 64.1089 152.898 63.2928ZM205.846 63.9098H198.926V50.558H186.282V63.8992H179.396V31.1525H186.282V44.2184H198.946V31.1525H205.866L205.846 63.9098ZM229.109 63.9098H222.393V60.3561H222.287C220.623 63.1136 218.399 64.4924 215.613 64.4924C210.552 64.4924 208.022 61.2105 208.023 54.6467V40.5189H214.739V54.0005C214.739 57.3054 215.96 58.9578 218.404 58.9578C218.952 58.9806 219.497 58.8704 220 58.6351C220.503 58.3998 220.949 58.0457 221.306 57.5994C222.031 56.6937 222.393 55.4641 222.393 53.9105V40.5189H229.109V63.9098ZM238.108 61.1929H238.023V63.9098H231.286V29.2803H238.023V44.0356H238.108C239.772 41.3098 242.138 39.947 245.208 39.947C248.021 39.947 250.188 40.9824 251.711 43.0531C253.233 45.124 253.993 47.9566 253.992 51.551C253.992 55.4526 253.104 58.5826 251.328 60.9413C249.552 63.2999 247.178 64.48 244.204 64.4818C241.526 64.4818 239.495 63.3855 238.114 61.1929H238.108ZM237.917 51.3233V53.7358C237.917 55.2434 238.321 56.4915 239.131 57.4801C239.513 57.9609 239.992 58.3439 240.531 58.601C241.07 58.858 241.655 58.9827 242.245 58.9657C243.781 58.9657 244.971 58.3302 245.817 57.0591C246.662 55.788 247.085 53.9872 247.085 51.657C247.085 49.7149 246.697 48.2038 245.923 47.1233C245.148 46.0429 244.046 45.4939 242.616 45.4762C241.979 45.4619 241.347 45.5998 240.766 45.8802C240.186 46.1606 239.671 46.5762 239.259 47.0968C238.366 48.1791 237.92 49.5878 237.92 51.3233H237.917Z" fill="black"/>
<path d="M13.7785 15.0978H11.6875V6.29011C11.6875 5.56981 11.7295 4.68536 11.8111 3.64198H11.7716C11.6857 4.07766 11.57 4.50609 11.4256 4.92365L7.6342 15.0978H6.18345L2.37968 5.01106C2.23699 4.56763 2.12467 4.11362 2.04355 3.65256H2.00896C2.05595 4.19812 2.07814 5.08519 2.07814 6.31921V15.1083H0.130615V1.48906H3.0965L6.43555 10.5509C6.63012 11.0585 6.79518 11.5786 6.92978 12.108H6.97434C7.19185 11.3931 7.36894 10.8634 7.5057 10.5192L10.9066 1.4944H13.7686L13.7785 15.0978ZM17.0755 3.34015C16.7564 3.3465 16.4473 3.2203 16.213 2.98786C16.0959 2.87627 16.0029 2.7385 15.9406 2.58441C15.8783 2.43022 15.8481 2.26344 15.8522 2.09545C15.8487 1.92646 15.879 1.75867 15.9413 1.60337C16.0036 1.44797 16.0962 1.30879 16.213 1.19508C16.3276 1.07735 16.4628 0.984899 16.6108 0.923061C16.7589 0.861224 16.9168 0.831313 17.0755 0.834939C17.4031 0.826177 17.7208 0.95549 17.9604 1.19508C18.0751 1.30849 18.1666 1.44606 18.2293 1.59914C18.2919 1.75232 18.3243 1.91769 18.3243 2.08487C18.3243 2.25206 18.2919 2.41753 18.2293 2.57061C18.1666 2.72379 18.0751 2.86137 17.9604 2.97467C17.8426 3.09502 17.7038 3.18918 17.552 3.25193C17.4001 3.31467 17.2382 3.34458 17.0755 3.34015ZM18.0938 15.0978H16.04V5.37916H18.0938V15.0978ZM26.816 14.6502C26.0293 15.1217 25.1393 15.3595 24.2381 15.3388C22.8936 15.3388 21.8078 14.8877 20.9806 13.9855C20.1535 13.0834 19.7416 11.9147 19.7449 10.4794C19.7449 8.8782 20.1889 7.59211 21.077 6.62114C21.9652 5.65018 23.1539 5.16465 24.6435 5.16465C25.3954 5.14914 26.1416 5.30816 26.8308 5.63074V7.65918C26.2545 7.17395 25.5445 6.90666 24.8115 6.89921C24.4133 6.88511 24.0169 6.96216 23.6486 7.12511C23.2804 7.28816 22.9488 7.5334 22.676 7.8446C22.1045 8.51775 21.8051 9.40613 21.8431 10.3153C21.8431 11.3216 22.1044 12.116 22.6267 12.6985C22.9014 12.9926 23.2303 13.2219 23.5925 13.372C23.9547 13.5219 24.342 13.5893 24.73 13.5698C25.4977 13.5589 26.2376 13.26 26.8208 12.725L26.816 14.6502ZM33.6597 7.47649C33.3456 7.24687 32.9688 7.13689 32.5895 7.16398C32.2872 7.16539 31.99 7.24657 31.724 7.40035C31.458 7.55414 31.2316 7.77591 31.0645 8.04582C30.6592 8.63367 30.4541 9.43343 30.4541 10.4477V15.0978H28.4002V5.37916H30.4541V7.39441H30.4911C30.6541 6.78238 30.9745 6.23179 31.4155 5.80548C31.7987 5.43778 32.295 5.23414 32.8095 5.23353C33.1027 5.2141 33.3955 5.27614 33.6597 5.41361V7.47649ZM38.5212 15.3388C37.1223 15.3388 36.0052 14.8842 35.1698 13.9749C34.3344 13.0658 33.9168 11.8626 33.9168 10.3655C33.9168 8.73257 34.3517 7.45796 35.2217 6.54168C36.0917 5.62541 37.2657 5.16646 38.7437 5.16465C40.1607 5.16465 41.2647 5.6104 42.0556 6.502C42.8465 7.39351 43.2419 8.62924 43.2419 10.2093C43.2419 11.7594 42.8152 13.0004 41.9616 13.9325C41.1081 14.8647 39.9613 15.3334 38.5212 15.3388ZM38.6176 6.92036C38.2572 6.90344 37.8979 6.97595 37.5678 7.13216C37.2378 7.28826 36.9457 7.52393 36.7145 7.82073C36.2483 8.42268 36.0151 9.25154 36.0151 10.3073C36.0151 11.3268 36.2499 12.1292 36.7244 12.7144C36.9582 13.0037 37.2498 13.2326 37.5776 13.3844C37.9053 13.5361 38.2608 13.6067 38.6176 13.591C38.97 13.6135 39.3224 13.5471 39.6464 13.3971C39.9705 13.2473 40.2573 13.018 40.4837 12.7277C40.9161 12.1531 41.1337 11.3322 41.1337 10.2702C41.1337 9.20834 40.9161 8.37414 40.4837 7.79424C40.26 7.49915 39.9743 7.265 39.65 7.11081C39.3256 6.95662 38.9719 6.88682 38.6176 6.90717V6.92036ZM44.3022 14.8064V12.7674C45.027 13.3764 45.9219 13.7066 46.8429 13.7048C48.0837 13.7048 48.704 13.313 48.704 12.5291C48.7096 12.3273 48.6531 12.1291 48.5433 11.965C48.4274 11.7988 48.2821 11.6584 48.1157 11.5519C47.9145 11.4204 47.7007 11.312 47.4782 11.2288C47.231 11.1335 46.9591 11.0276 46.6576 10.9057C46.3129 10.7606 45.9768 10.5925 45.6516 10.4027C45.3779 10.2431 45.128 10.0404 44.9102 9.80153C44.7151 9.58077 44.563 9.32063 44.4628 9.03622C44.3585 8.71636 44.3083 8.37918 44.3145 8.04048C44.3056 7.6044 44.4127 7.17446 44.6235 6.80122C44.8356 6.43886 45.1201 6.13128 45.4564 5.90085C45.8216 5.64988 46.2222 5.46386 46.6427 5.35006C47.0906 5.22528 47.5517 5.16294 48.0144 5.16465C48.782 5.15085 49.5453 5.28913 50.266 5.57243V7.50026C49.619 7.02822 48.8515 6.78218 48.0688 6.79588C47.8314 6.78682 47.594 6.80988 47.362 6.86477C47.1725 6.9118 46.9913 6.99147 46.8256 7.10044C46.6867 7.19279 46.5692 7.31777 46.4821 7.46592C46.3986 7.60671 46.3548 7.77037 46.356 7.93725C46.3509 8.12296 46.3946 8.30646 46.4821 8.4669C46.5743 8.62381 46.6996 8.75533 46.8479 8.85081C47.0331 8.97317 47.2294 9.07519 47.4336 9.15536C47.661 9.24802 47.9279 9.34601 48.2172 9.45458C48.5756 9.61149 48.9262 9.78834 49.2675 9.98422C49.5559 10.1456 49.822 10.3487 50.0585 10.588C50.2788 10.8066 50.4547 11.0717 50.575 11.3666C50.6997 11.7033 50.7594 12.0636 50.7505 12.4258C50.7602 12.8793 50.6496 13.3265 50.4316 13.7154C50.2169 14.0846 49.926 14.3962 49.5814 14.6263C49.2004 14.8765 48.7826 15.0556 48.3457 15.156C47.8651 15.2754 47.3733 15.3349 46.88 15.3334C45.9978 15.3519 45.1222 15.1677 44.3121 14.7932L44.3022 14.8064ZM56.2595 15.3388C54.8607 15.3388 53.7435 14.8842 52.9082 13.9749C52.0727 13.0658 51.655 11.8626 51.655 10.3655C51.655 8.73257 52.09 7.45796 52.9601 6.54168C53.83 5.62541 55.004 5.16646 56.482 5.16465C57.899 5.16465 59.0029 5.6104 59.7939 6.502C60.5848 7.39351 60.9802 8.62924 60.9802 10.2093C60.9802 11.7594 60.5535 13.0004 59.6999 13.9325C58.8464 14.8647 57.6997 15.3334 56.2595 15.3388ZM56.356 6.92036C55.9955 6.90344 55.6362 6.97595 55.3061 7.13216C54.9761 7.28826 54.6841 7.52393 54.4528 7.82073C53.9849 8.42268 53.7518 9.25154 53.7534 10.3073C53.7534 11.3268 53.9882 12.1292 54.4627 12.7144C54.6966 13.0037 54.9881 13.2326 55.3159 13.3844C55.6437 13.5361 55.9992 13.6067 56.356 13.591C56.7084 13.6135 57.0608 13.5471 57.3848 13.3971C57.7089 13.2473 57.9957 13.018 58.222 12.7277C58.6545 12.1531 58.872 11.3322 58.872 10.2702C58.872 9.20834 58.6545 8.37414 58.222 7.79424C57.999 7.50026 57.7146 7.26671 57.3916 7.11262C57.0688 6.95853 56.7165 6.88803 56.3634 6.90717L56.356 6.92036ZM67.4437 2.51653C67.1552 2.34028 66.8285 2.24884 66.4967 2.25176C65.4982 2.25176 64.999 2.85633 64.999 4.06568V5.38974H67.1073V7.11634H65.0089V15.1083H62.9525V7.10577H61.4029V5.37916H62.9525V3.80353C62.9318 3.35032 63.0054 2.89792 63.1678 2.47886C63.3303 2.0598 63.5775 1.68465 63.8917 1.3805C64.3877 0.96667 64.9691 0.686489 65.5871 0.563519C66.2052 0.440449 66.8417 0.478115 67.4437 0.673496V2.51653ZM73.4961 15.0051C72.9979 15.2411 72.4565 15.3517 71.9123 15.3281C70.1517 15.3281 69.2719 14.4234 69.2719 12.6138V7.10577H67.7576V5.37916H69.2719V3.13087L71.3257 2.50333V5.37916H73.4961V7.10577H71.3361V11.965C71.3361 12.5397 71.4348 12.9528 71.6275 13.1991C71.7553 13.3337 71.9085 13.4367 72.0777 13.5009C72.246 13.5649 72.4255 13.5884 72.6041 13.5698C72.9303 13.577 73.2489 13.4628 73.5065 13.2467L73.4961 15.0051ZM84.475 2.51653C84.1864 2.34028 83.8602 2.24884 83.5284 2.25176C82.5292 2.25176 82.0301 2.85633 82.0301 4.06568V5.38974H84.1385V7.11634H82.0404V15.1083H79.9866V7.10577H78.4366V5.37916H79.9866V3.80353C79.9659 3.35032 80.0392 2.89792 80.2019 2.47886C80.3645 2.0598 80.6117 1.68465 80.9256 1.3805C81.4219 0.96667 82.0028 0.686489 82.6213 0.563519C83.2389 0.440449 83.8753 0.478115 84.4768 0.673496L84.475 2.51653ZM89.171 15.3388C87.7714 15.3388 86.6547 14.8842 85.8191 13.9749C84.9835 13.0658 84.5661 11.8626 84.5661 10.3655C84.5661 8.73257 85.0013 7.45796 85.8708 6.54168C86.7412 5.62541 87.9152 5.16646 89.3929 5.16465C90.8103 5.16465 91.9139 5.6104 92.7053 6.502C93.4958 7.39351 93.8916 8.62924 93.8916 10.2093C93.8916 11.7594 93.4648 13.0004 92.6113 13.9325C91.7578 14.8647 90.6129 15.3334 89.1757 15.3388H89.171ZM89.2669 6.92036C88.9069 6.90344 88.5478 6.97595 88.217 7.13216C87.887 7.28826 87.5956 7.52393 87.3644 7.82073C86.8944 8.41916 86.6594 9.24802 86.6594 10.3073C86.6594 11.3268 86.8944 12.1292 87.3691 12.7144C87.6032 13.0037 87.8946 13.2326 88.2226 13.3844C88.5497 13.5361 88.905 13.6067 89.2622 13.591C89.6147 13.6135 89.9672 13.5471 90.2915 13.3971C90.6148 13.2473 90.9015 13.018 91.1281 12.7277C91.5604 12.1531 91.7785 11.3322 91.7785 10.2702C91.7785 9.20834 91.5604 8.37414 91.1281 7.79424C90.9053 7.50067 90.6214 7.26731 90.299 7.11323C89.9766 6.95914 89.625 6.88854 89.2716 6.90717L89.2669 6.92036ZM100.698 7.48968C100.384 7.26016 100.007 7.15008 99.6282 7.17728C99.3255 7.17859 99.0285 7.25976 98.7625 7.41365C98.4965 7.56743 98.2699 7.7891 98.1026 8.05901C97.6956 8.64697 97.4926 9.44753 97.4926 10.4609V15.111H95.4359V5.39236H97.4926V7.39441H97.5349C97.6984 6.78218 98.0199 6.23169 98.4617 5.80548C98.8443 5.43738 99.3406 5.23364 99.8557 5.23353C100.148 5.2144 100.441 5.27644 100.705 5.41361L100.698 7.48968ZM105.881 14.5443V12.2192C106.091 12.4213 106.325 12.5939 106.576 12.733C106.85 12.8871 107.136 13.0157 107.431 13.117C107.727 13.2196 108.029 13.3002 108.335 13.358C108.61 13.4135 108.889 13.4428 109.168 13.4453C110.052 13.4453 110.712 13.2873 111.146 12.9713C111.356 12.822 111.527 12.6166 111.642 12.3752C111.756 12.1338 111.81 11.8647 111.798 11.5943C111.805 11.2975 111.729 11.005 111.58 10.7549C111.419 10.4986 111.213 10.2775 110.975 10.1034C110.684 9.88905 110.378 9.70042 110.058 9.53938C109.707 9.3593 109.329 9.17127 108.928 8.97529C108.496 8.72905 108.095 8.47747 107.722 8.22589C107.37 7.99003 107.045 7.71095 106.753 7.39441C106.482 7.09117 106.262 6.73878 106.106 6.35366C105.942 5.92372 105.862 5.46225 105.871 4.99787C105.858 4.41324 105.997 3.83646 106.274 3.33219C106.542 2.86147 106.906 2.46214 107.339 2.16434C107.799 1.8475 108.307 1.61656 108.839 1.48111C109.406 1.33165 109.987 1.25702 110.569 1.25863C111.899 1.25863 112.867 1.42018 113.474 1.74326V3.97302C112.754 3.41689 111.827 3.13792 110.693 3.13621C110.38 3.13641 110.067 3.16833 109.759 3.23148C109.468 3.28929 109.187 3.39474 108.925 3.54399C108.69 3.68136 108.487 3.87312 108.33 4.10546C108.171 4.34646 108.09 4.63652 108.098 4.9316C108.091 5.20866 108.152 5.4829 108.276 5.72602C108.408 5.9642 108.585 6.17066 108.795 6.33251C109.056 6.53645 109.335 6.7138 109.628 6.86215C109.954 7.03688 110.334 7.22491 110.765 7.42614C111.207 7.67328 111.624 7.93282 112.018 8.20474C112.394 8.46176 112.741 8.76389 113.054 9.10511C113.345 9.42577 113.585 9.79629 113.762 10.2014C113.942 10.6328 114.031 11.1009 114.025 11.5732C114.052 12.1528 113.933 12.7295 113.679 13.2424C113.425 13.7552 113.047 14.1849 112.584 14.486C112.118 14.7944 111.603 15.0122 111.067 15.1295C110.469 15.2668 109.86 15.3342 109.25 15.3308C109.037 15.3308 108.778 15.3123 108.466 15.2778C108.155 15.2434 107.839 15.193 107.515 15.1269C107.203 15.0628 106.896 14.9816 106.592 14.8833C106.342 14.8052 106.103 14.6912 105.881 14.5443ZM119.916 14.9813C119.419 15.2173 118.877 15.3278 118.333 15.3043C116.573 15.3043 115.693 14.3995 115.693 12.5899V7.10577H114.178V5.37916H115.693V3.13087L117.747 2.50333V5.37916H119.916V7.10577H117.747V11.965C117.747 12.5397 117.846 12.9528 118.038 13.1991C118.166 13.3337 118.319 13.4367 118.488 13.5009C118.657 13.5649 118.836 13.5884 119.015 13.5698C119.341 13.577 119.66 13.4628 119.916 13.2467V14.9813ZM128.359 15.0872H126.366V13.5672H126.331C126.072 14.1076 125.677 14.5586 125.189 14.8678C124.701 15.1771 124.142 15.3321 123.575 15.3149C122.685 15.3149 121.985 15.0501 121.482 14.5363C121.228 14.269 121.028 13.9474 120.898 13.5925C120.767 13.2376 120.707 12.8573 120.723 12.4761C120.723 10.6419 121.711 9.57291 123.689 9.26927L126.383 8.86138C126.383 7.47558 125.768 6.78269 124.538 6.78269C123.461 6.78128 122.421 7.20659 121.617 7.97693V6.07035C122.624 5.44956 123.768 5.13453 124.929 5.15941C127.221 5.15941 128.367 6.36775 128.367 8.78464L128.359 15.0872ZM126.383 10.3205L124.474 10.6092C124.003 10.6489 123.547 10.8058 123.142 11.0673C122.843 11.2916 122.693 11.6861 122.695 12.251C122.69 12.4414 122.724 12.6305 122.796 12.805C122.867 12.9794 122.973 13.1348 123.108 13.26C123.416 13.5356 123.809 13.6765 124.21 13.6546C124.5 13.6629 124.788 13.6049 125.055 13.4844C125.322 13.3638 125.563 13.1834 125.759 12.9554C126.175 12.4715 126.396 11.8326 126.375 11.1758L126.383 10.3205ZM135.164 7.47377C134.85 7.24425 134.473 7.13417 134.094 7.16136C133.791 7.16267 133.494 7.24395 133.228 7.39774C132.962 7.55152 132.736 7.77319 132.568 8.0432C132.163 8.63106 131.958 9.43081 131.958 10.445V15.0952H129.905V5.37655H131.958V7.39441H131.993C132.158 6.78259 132.478 6.2323 132.92 5.80548C133.303 5.43738 133.799 5.23364 134.314 5.23353C134.607 5.2144 134.9 5.27644 135.164 5.41361V7.47377ZM141.553 14.9892C141.054 15.2253 140.513 15.3358 139.969 15.3123C138.209 15.3123 137.329 14.4075 137.329 12.5979V7.10577H135.814V5.37916H137.327V3.13087L139.383 2.50333V5.37916H141.551V7.10577H139.378V11.965C139.378 12.5397 139.474 12.9528 139.67 13.1991C139.796 13.3338 139.949 13.4369 140.117 13.501C140.286 13.5651 140.465 13.5886 140.644 13.5698C140.97 13.5774 141.289 13.4632 141.545 13.2467L141.553 14.9892ZM150.945 15.0952H148.891V13.5566H148.853C148.601 14.1122 148.202 14.5768 147.707 14.8933C147.211 15.21 146.64 15.3647 146.064 15.3388C143.921 15.3388 142.851 13.959 142.851 11.1997V5.37916H144.906V10.9587C144.906 12.7065 145.535 13.5795 146.792 13.5777C147.077 13.5853 147.359 13.5244 147.619 13.3999C147.879 13.2752 148.109 13.0899 148.293 12.8574C148.702 12.3285 148.913 11.6554 148.883 10.9693V5.37916H150.937L150.945 15.0952ZM154.652 13.6624H154.615V19.5757H152.551V5.37916H154.605V7.08724H154.642C155.344 5.79672 156.371 5.15146 157.724 5.15146C158.877 5.15146 159.775 5.58482 160.416 6.45165C161.057 7.31847 161.379 8.4827 161.382 9.94454C161.382 11.5634 161.018 12.8601 160.292 13.8346C159.94 14.3112 159.488 14.692 158.972 14.946C158.457 15.2 157.893 15.32 157.326 15.2964C156.782 15.3145 156.244 15.1719 155.771 14.8842C155.297 14.5965 154.907 14.1747 154.642 13.6651L154.652 13.6624ZM154.598 9.82802V11.0329C154.584 11.6988 154.811 12.3448 155.23 12.8363C155.454 13.0891 155.726 13.2864 156.027 13.4146C156.329 13.5427 156.653 13.5986 156.978 13.5781C157.302 13.5577 157.618 13.4615 157.903 13.2962C158.189 13.1311 158.437 12.9008 158.631 12.6218C159.066 11.9862 159.283 11.0991 159.283 9.96035C159.283 9.00439 159.081 8.25761 158.676 7.71478C158.482 7.45071 158.231 7.23962 157.946 7.09882C157.661 6.95793 157.349 6.89135 157.035 6.90445C156.7 6.89226 156.368 6.96095 156.062 7.10537C155.757 7.24979 155.485 7.46622 155.268 7.73865C154.807 8.32207 154.566 9.06724 154.588 9.83064L154.598 9.82802ZM162.388 14.7906V12.7515C163.114 13.3607 164.009 13.6909 164.932 13.6889C166.167 13.6889 166.79 13.297 166.79 12.5132C166.796 12.3117 166.741 12.1135 166.632 11.9491C166.515 11.7825 166.369 11.6422 166.201 11.536C166 11.4045 165.787 11.2962 165.564 11.213C165.317 11.1176 165.045 11.0117 164.745 10.8899C164.4 10.7452 164.065 10.5772 163.74 10.3868C163.466 10.2278 163.216 10.0251 162.998 9.78562C162.803 9.56486 162.651 9.30472 162.552 9.02031C162.444 8.70105 162.394 8.36356 162.4 8.02467C162.393 7.58858 162.5 7.15905 162.709 6.78531C162.921 6.42295 163.206 6.11547 163.542 5.88494C163.907 5.63397 164.308 5.44795 164.729 5.33414C165.177 5.20956 165.639 5.14723 166.103 5.14874C166.87 5.13504 167.632 5.27332 168.352 5.55662V7.48445C167.705 7.01201 166.937 6.76597 166.154 6.77997C165.919 6.77705 165.683 6.80635 165.452 6.86738C165.263 6.91401 165.082 6.99358 164.917 7.10305C164.776 7.1946 164.658 7.31968 164.571 7.46854C164.489 7.61004 164.446 7.77339 164.447 7.93987C164.442 8.12518 164.485 8.30837 164.571 8.46951C164.663 8.62713 164.789 8.75876 164.939 8.85353C165.122 8.9764 165.318 9.07842 165.522 9.15798C165.749 9.25074 166.016 9.34873 166.306 9.4573C166.664 9.6136 167.015 9.79045 167.356 9.98684C167.645 10.1482 167.912 10.3513 168.149 10.5906C168.361 10.8121 168.529 11.0768 168.644 11.3692C168.77 11.7054 168.831 12.066 168.821 12.4284C168.832 12.882 168.721 13.3292 168.503 13.7181C168.287 14.0867 167.997 14.3982 167.653 14.6291C167.271 14.8788 166.854 15.0579 166.417 15.1587C165.936 15.2782 165.444 15.3378 164.951 15.3361C164.067 15.3545 163.19 15.1693 162.378 14.7932L162.388 14.7906Z" fill="black"/>
</svg>
