<svg width="150" height="33" viewBox="0 0 150 33" fill="none" xmlns="http://www.w3.org/2000/svg">
<g style="mix-blend-mode:luminosity" clip-path="url(#clip0_824_77)">
<path d="M62.3822 6.68218V25.8765H59.0499V10.8143H59.0054L53.0517 25.8765H50.8301L44.743 10.8143H44.6986V25.8765H41.6328V6.68218H46.4314L51.9409 20.9002H52.0297L57.8502 6.68218H62.3822ZM65.137 8.14841C65.137 7.61523 65.3147 7.17092 65.7146 6.81547C66.1144 6.46002 66.5588 6.2823 67.0919 6.2823C67.6695 6.2823 68.1583 6.46002 68.5137 6.81547C68.8692 7.17092 69.0913 7.61523 69.0913 8.14841C69.0913 8.68158 68.9136 9.1259 68.5137 9.48135C68.1139 9.8368 67.6695 10.0145 67.0919 10.0145C66.5143 10.0145 66.07 9.8368 65.7146 9.48135C65.3591 9.08147 65.137 8.63715 65.137 8.14841ZM68.7359 12.1028V25.8765H65.4924V12.1028H68.7359ZM78.5552 23.5216C79.044 23.5216 79.5771 23.4328 80.1547 23.1662C80.7323 22.944 81.2655 22.633 81.7543 22.2776V25.2989C81.2211 25.6099 80.6435 25.8321 79.977 25.9654C79.3105 26.0986 78.5996 26.1875 77.7999 26.1875C75.756 26.1875 74.1121 25.5655 72.868 24.277C71.5795 22.9885 70.9575 21.3445 70.9575 19.3895C70.9575 17.168 71.6239 15.3463 72.9124 13.9245C74.2009 12.5027 76.0226 11.7918 78.4219 11.7918C79.044 11.7918 79.666 11.8806 80.2436 12.0139C80.8656 12.1472 81.3544 12.3694 81.7098 12.5471V15.6573C81.2211 15.3018 80.6879 14.9908 80.1992 14.8131C79.666 14.6354 79.1328 14.5021 78.5996 14.5021C77.3111 14.5021 76.2892 14.902 75.4894 15.7462C74.6897 16.5904 74.3342 17.7011 74.3342 19.1229C74.3342 20.5003 74.7341 21.6111 75.4894 22.3664C76.2448 23.1217 77.2667 23.5216 78.5552 23.5216ZM90.9515 11.8806C91.2181 11.8806 91.4403 11.8806 91.6624 11.9251C91.8846 11.9695 92.0623 12.0139 92.1956 12.0584V15.3463C92.0179 15.213 91.7957 15.0797 91.4403 14.9908C91.0848 14.902 90.7294 14.8131 90.2406 14.8131C89.4409 14.8131 88.7744 15.1686 88.2412 15.835C87.7081 16.5015 87.397 17.5234 87.397 18.9452V25.8765H84.1535V12.1028H87.397V14.2799H87.4415C87.7525 13.5246 88.1968 12.947 88.7744 12.5027C89.3964 12.1028 90.1073 11.8806 90.9515 11.8806ZM92.3733 19.2118C92.3733 16.9458 93.0398 15.1241 94.2839 13.7912C95.5724 12.4582 97.3496 11.7918 99.6156 11.7918C101.748 11.7918 103.437 12.4138 104.636 13.7023C105.836 14.9908 106.458 16.7236 106.458 18.9008C106.458 21.1223 105.792 22.8996 104.548 24.2325C103.259 25.5655 101.526 26.2319 99.3046 26.2319C97.1719 26.2319 95.4835 25.6099 94.2394 24.3658C92.9954 23.0773 92.3733 21.3445 92.3733 19.2118ZM95.7501 19.0785C95.7501 20.5003 96.0611 21.6111 96.7276 22.3664C97.3941 23.1217 98.3271 23.5216 99.5268 23.5216C100.682 23.5216 101.615 23.1662 102.237 22.3664C102.859 21.6111 103.17 20.5003 103.17 18.9896C103.17 17.5234 102.859 16.4126 102.237 15.6129C101.615 14.8575 100.682 14.4577 99.5712 14.4577C98.3716 14.4577 97.4829 14.8575 96.8165 15.6573C96.0611 16.5015 95.7501 17.6123 95.7501 19.0785ZM111.301 15.7462C111.301 16.1905 111.434 16.5904 111.745 16.8569C112.056 17.1235 112.678 17.4345 113.7 17.8344C114.989 18.3676 115.922 18.9452 116.411 19.5672C116.944 20.2337 117.21 20.989 117.21 21.9221C117.21 23.2106 116.722 24.2325 115.7 25.0323C114.722 25.8321 113.345 26.1875 111.657 26.1875C111.079 26.1875 110.457 26.0986 109.746 25.9654C109.035 25.8321 108.457 25.6543 107.969 25.4322V22.2331C108.546 22.633 109.213 22.9885 109.879 23.2106C110.546 23.4328 111.168 23.5661 111.745 23.5661C112.456 23.5661 113.034 23.4772 113.345 23.255C113.7 23.0329 113.878 22.7219 113.878 22.2331C113.878 21.7888 113.7 21.4334 113.345 21.0779C112.989 20.7669 112.279 20.4114 111.301 20.0116C110.101 19.5228 109.257 18.9452 108.768 18.3232C108.28 17.7011 108.013 16.9014 108.013 15.9239C108.013 14.6798 108.502 13.6579 109.479 12.8581C110.457 12.0584 111.745 11.6585 113.3 11.6585C113.789 11.6585 114.322 11.7029 114.9 11.8362C115.478 11.9695 116.011 12.1028 116.411 12.2361V15.3907C115.966 15.1241 115.478 14.8575 114.9 14.6354C114.322 14.4132 113.745 14.3244 113.212 14.3244C112.59 14.3244 112.101 14.4577 111.79 14.6798C111.479 14.9908 111.301 15.3018 111.301 15.7462ZM118.588 19.2118C118.588 16.9458 119.254 15.1241 120.498 13.7912C121.787 12.4582 123.564 11.7918 125.83 11.7918C127.963 11.7918 129.651 12.4138 130.851 13.7023C132.05 14.9908 132.673 16.7236 132.673 18.9008C132.673 21.1223 132.006 22.8996 130.762 24.2325C129.473 25.5655 127.741 26.2319 125.519 26.2319C123.386 26.2319 121.698 25.6099 120.454 24.3658C119.254 23.0773 118.588 21.3445 118.588 19.2118ZM121.965 19.0785C121.965 20.5003 122.276 21.6111 122.942 22.3664C123.609 23.1217 124.542 23.5216 125.741 23.5216C126.896 23.5216 127.829 23.1662 128.452 22.3664C129.074 21.6111 129.385 20.5003 129.385 18.9896C129.385 17.5234 129.074 16.4126 128.452 15.6129C127.829 14.8575 126.896 14.4577 125.786 14.4577C124.586 14.4577 123.697 14.8575 123.031 15.6573C122.32 16.5015 121.965 17.6123 121.965 19.0785ZM143.469 14.7687H138.626V25.8765H135.338V14.7687H133.028V12.1028H135.338V10.1922C135.338 8.77045 135.827 7.5708 136.76 6.63775C137.693 5.70469 138.893 5.26038 140.359 5.26038C140.759 5.26038 141.114 5.30481 141.425 5.30481C141.736 5.30481 142.003 5.39367 142.225 5.48253V8.2817C142.136 8.23727 141.914 8.14841 141.648 8.05955C141.381 7.97068 141.07 7.92625 140.715 7.92625C140.048 7.92625 139.515 8.14841 139.159 8.54829C138.804 8.94817 138.626 9.61464 138.626 10.4144V12.0584H143.469V8.94817L146.713 7.97068V12.0584H150.001V14.7242H146.713V21.1668C146.713 22.011 146.891 22.5886 147.157 22.944C147.468 23.2995 147.957 23.4772 148.623 23.4772C148.801 23.4772 149.023 23.4328 149.29 23.3439C149.556 23.255 149.779 23.1662 149.956 23.0329V25.6988C149.734 25.8321 149.423 25.9209 148.934 26.0098C148.446 26.0986 148.001 26.1431 147.513 26.1431C146.135 26.1431 145.113 25.7876 144.447 25.0767C143.78 24.3658 143.425 23.255 143.425 21.7888L143.469 14.7687Z" fill="#737373"/>
<path d="M15.1955 0.284302H0V15.4798H15.1955V0.284302Z" fill="#F25022"/>
<path d="M31.9885 0.284302H16.793V15.4798H31.9885V0.284302Z" fill="#7FBA00"/>
<path d="M15.1955 17.0792H0V32.2747H15.1955V17.0792Z" fill="#00A4EF"/>
<path d="M31.9885 17.0792H16.793V32.2747H31.9885V17.0792Z" fill="#FFB900"/>
</g>
<defs>
<clipPath id="clip0_824_77">
<rect width="150" height="31.9905" fill="white" transform="translate(0 0.284302)"/>
</clipPath>
</defs>
</svg>
