<svg width="150" height="22" viewBox="0 0 150 22" fill="none" xmlns="http://www.w3.org/2000/svg">
<path d="M28.0298 7.70397H42.0571V0.552795H28.0298V7.70397Z" fill="white"/>
<path d="M0 0.552795V7.70397H7.00114V22.0063H14.0023V7.70397H21.0284V0.552795H0Z" fill="white"/>
<path d="M21.0288 22.0063H42.0572V14.8552H28.03V7.70398H21.0288V22.0063Z" fill="white"/>
<path d="M59.935 5.95367H49.6333V8.92916H53.0839V18.2557H56.4844V8.92916H59.935V5.95367Z" fill="white"/>
<path d="M63.8107 8.82916C61.3853 8.82916 59.585 10.4544 59.585 13.6549C59.585 16.4804 61.1102 18.4557 63.8857 18.4557C65.3359 18.4557 66.5111 18.0807 67.6363 17.4056L66.4361 15.3802C65.5109 15.8553 64.8608 16.0303 64.0357 16.0303C63.1856 16.0303 62.5855 15.5803 62.4604 14.5551H67.8863C67.9113 14.4051 67.9113 14.205 67.9113 13.93C67.9363 10.5044 66.3611 8.82916 63.8107 8.82916ZM62.5104 12.5798C62.6105 11.6546 63.0105 11.1795 63.7356 11.1795C64.6608 11.1795 64.9858 11.6546 65.1359 12.5798H62.5104Z" fill="white"/>
<path d="M73.937 15.8803C73.0868 15.8803 72.6367 15.1302 72.6367 13.6549C72.6367 12.2047 73.0368 11.3796 73.8619 11.3796C74.5371 11.3796 74.8371 11.7546 75.2872 12.5798L77.4625 10.9295C76.6624 9.62929 75.6622 8.82916 73.912 8.82916C70.9615 8.82916 69.5112 10.7795 69.5112 13.6049C69.5112 16.7055 71.1365 18.4307 73.8369 18.4307C75.4622 18.4307 76.4624 17.8056 77.5375 16.2304L75.5372 14.6551C74.9371 15.5553 74.5371 15.8803 73.937 15.8803Z" fill="white"/>
<path d="M84.8393 8.82917C83.7391 8.82917 83.089 9.20423 82.5139 9.6293V5.45361L79.3384 6.72882V18.2807H82.5139V13.0049C82.5139 11.8547 82.914 11.5296 83.5891 11.5296C84.2392 11.5296 84.6392 11.8547 84.6392 13.0298V18.2807H87.8148V12.6298C87.8148 10.2044 86.8396 8.82917 84.8393 8.82917Z" fill="white"/>
<path d="M95.441 15.4802C93.9657 15.4802 93.3656 13.9799 93.3656 12.1046C93.3656 10.1543 93.9907 8.72909 95.416 8.72909C96.5411 8.72909 96.9662 9.4542 97.3913 10.6044L100.492 9.37919C99.6416 7.05381 98.4415 5.7536 95.416 5.7536C92.1154 5.7536 89.79 8.15399 89.79 12.1046C89.79 15.7552 91.7404 18.4557 95.391 18.4557C98.3164 18.4557 99.6917 16.8804 100.517 15.2802L97.6413 13.7549C96.9662 14.9051 96.5161 15.4802 95.441 15.4802Z" fill="white"/>
<path d="M105.617 9.70431V9.02919H102.441V18.2557H105.617V13.2299C105.617 12.1047 106.092 11.7296 106.867 11.7296C107.492 11.7296 107.942 12.0547 108.342 12.5048L109.092 9.22923C108.717 9.00419 108.267 8.82916 107.592 8.82916C106.767 8.82916 106.142 9.17922 105.617 9.70431Z" fill="white"/>
<path d="M115.869 14.305C115.869 15.4552 115.469 15.7803 114.819 15.7803C114.169 15.7803 113.769 15.4552 113.769 14.28V9.02917H110.593V14.6801C110.593 17.1055 111.568 18.4557 113.594 18.4557C114.669 18.4557 115.344 18.0807 115.894 17.6556V18.2807H119.07V9.05418H115.894V14.305" fill="white"/>
<path d="M126.846 8.82916C125.746 8.82916 125.096 9.20423 124.521 9.6293V9.00419H121.345V18.2307H124.521V12.9548C124.521 11.8046 124.921 11.4796 125.596 11.4796C126.246 11.4796 126.646 11.8047 126.646 12.9798V18.2307H129.822V12.5798C129.822 10.2044 128.871 8.82916 126.846 8.82916Z" fill="white"/>
<path d="M136.123 15.8803C135.272 15.8803 134.822 15.1302 134.822 13.6549C134.822 12.2047 135.222 11.3796 136.023 11.3796C136.698 11.3796 136.998 11.7546 137.448 12.5798L139.623 10.9295C138.823 9.62929 137.823 8.82916 136.073 8.82916C133.122 8.82916 131.672 10.7795 131.672 13.6049C131.672 16.7055 133.297 18.4307 135.998 18.4307C137.623 18.4307 138.623 17.8056 139.698 16.2304L137.698 14.6551C137.148 15.5553 136.723 15.8803 136.123 15.8803Z" fill="white"/>
<path d="M147.024 8.82917C145.924 8.82917 145.274 9.20423 144.698 9.6293V5.45361L141.523 6.72882V18.2807H144.698V13.0049C144.698 11.8547 145.099 11.5296 145.774 11.5296C146.424 11.5296 146.824 11.8547 146.824 13.0298V18.2807H149.999V12.6298C150.024 10.2044 149.049 8.82917 147.024 8.82917Z" fill="white"/>
</svg>
