<svg width="150" height="26" viewBox="0 0 150 26" fill="none" xmlns="http://www.w3.org/2000/svg">
<path d="M21.185 0.568665H4.23701C1.89697 0.568665 0 2.46562 0 4.80564V21.7535C0 24.0936 1.89697 25.9905 4.23701 25.9905H21.185C23.5251 25.9905 25.422 24.0936 25.422 21.7535V4.80564C25.422 2.46562 23.5251 0.568665 21.185 0.568665Z" fill="#F97316"/>
<path d="M6.79688 6.84845H9.71599L12.5268 12.1568H12.6469L15.4577 6.84845H18.3764L13.8808 14.8169V19.1744H11.2929V14.8169L6.79688 6.84845Z" fill="#F9FAFB"/>
<path d="M33.6963 20.1471V6.83527H36.5108V12.3279H42.2245V6.83527H45.0323V20.1471H42.2245V14.6482H36.5108V20.1471H33.6963ZM50.1477 20.3357C49.5106 20.3357 48.9433 20.2252 48.4448 20.0042C47.9466 19.7787 47.552 19.4475 47.2617 19.0098C46.9758 18.5676 46.8329 18.0172 46.8329 17.3588C46.8329 16.804 46.9345 16.3383 47.1383 15.9613C47.342 15.5841 47.6195 15.2809 47.9702 15.0513C48.3213 14.8214 48.72 14.6483 49.1662 14.5311C49.6171 14.4143 50.0891 14.3318 50.5832 14.2842C51.1638 14.2234 51.6321 14.1671 51.9873 14.1151C52.3424 14.0588 52.6003 13.9766 52.7606 13.8683C52.9212 13.76 53.0012 13.5997 53.0012 13.3871V13.3481C53.0012 12.9365 52.8712 12.6182 52.6114 12.3927C52.3557 12.1672 51.9917 12.0549 51.5194 12.0549C51.0209 12.0549 50.6244 12.1654 50.3297 12.3861C50.0349 12.6027 49.84 12.8757 49.7446 13.2051L47.184 12.9973C47.3137 12.3905 47.5694 11.8662 47.9507 11.4241C48.332 10.9779 48.8239 10.6356 49.4263 10.3973C50.0331 10.1545 50.735 10.0333 51.5322 10.0333C52.0867 10.0333 52.6177 10.0981 53.1246 10.2282C53.636 10.3582 54.0888 10.5598 54.4834 10.8328C54.8821 11.1058 55.196 11.4569 55.4259 11.8857C55.6554 12.3105 55.7704 12.8197 55.7704 13.4133V20.1471H53.1442V18.7625H53.0664C52.9058 19.0746 52.6913 19.3498 52.4228 19.5882C52.1542 19.8222 51.8314 20.0064 51.4542 20.1405C51.0772 20.2705 50.6417 20.3357 50.1477 20.3357ZM50.9409 18.4247C51.348 18.4247 51.7076 18.3444 52.0197 18.1841C52.3318 18.0194 52.5768 17.7983 52.7544 17.5213C52.9319 17.2439 53.0207 16.9296 53.0207 16.5788V15.5192C52.9341 15.5756 52.8148 15.6275 52.6633 15.6751C52.516 15.7185 52.3491 15.7598 52.1626 15.7985C51.9766 15.8335 51.7902 15.8659 51.6037 15.8961C51.4173 15.9223 51.2486 15.9459 51.0968 15.9676C50.7718 16.0155 50.4881 16.091 50.2453 16.1953C50.0025 16.2992 49.8142 16.4399 49.6798 16.6175C49.5453 16.7911 49.4782 17.0077 49.4782 17.2678C49.4782 17.6447 49.6149 17.9328 49.8879 18.1322C50.165 18.3271 50.5161 18.4247 50.9409 18.4247ZM62.4295 20.342C61.4067 20.342 60.5272 20.1254 59.7904 19.6921C59.0583 19.2544 58.495 18.648 58.1004 17.872C57.7106 17.0965 57.5156 16.2038 57.5156 15.1943C57.5156 14.1715 57.7128 13.2744 58.107 12.5032C58.5056 11.7277 59.0712 11.1231 59.8036 10.6898C60.5357 10.2521 61.4067 10.0333 62.4166 10.0333C63.2875 10.0333 64.0502 10.1913 64.7046 10.5078C65.3589 10.8239 65.8766 11.2682 66.2579 11.8401C66.6392 12.4122 66.8496 13.0839 66.8883 13.8554H64.2753C64.2016 13.3569 64.0067 12.956 63.6903 12.6528C63.3786 12.3452 62.9688 12.1912 62.4619 12.1912C62.033 12.1912 61.658 12.3083 61.3374 12.5423C61.0209 12.7718 60.7741 13.1078 60.5965 13.5496C60.4189 13.9917 60.3301 14.527 60.3301 15.1552C60.3301 15.7922 60.4167 16.3338 60.5899 16.78C60.7674 17.2265 61.0169 17.5666 61.3374 17.8006C61.658 18.0345 62.033 18.1517 62.4619 18.1517C62.7784 18.1517 63.0621 18.0865 63.3133 17.9568C63.569 17.8267 63.7794 17.6381 63.9441 17.3912C64.1128 17.14 64.2234 16.8386 64.2753 16.4878H66.8883C66.8452 17.2505 66.637 17.9221 66.2645 18.5028C65.8961 19.079 65.3869 19.5296 64.737 19.8546C64.0871 20.1795 63.3178 20.342 62.4295 20.342ZM71.1702 17.2741L71.1769 13.9526H71.5799L74.7776 10.1633H77.9561L73.6597 15.181H73.0032L71.1702 17.2741ZM68.6612 20.1471V6.83527H71.4304V20.1471H68.6612ZM74.9014 20.1471L71.9631 15.7985L73.8093 13.8421L78.1447 20.1471H74.9014ZM83.4535 20.342C82.4267 20.342 81.5424 20.1342 80.8015 19.7183C80.065 19.2979 79.4972 18.704 79.0986 17.9372C78.6999 17.1657 78.5006 16.2535 78.5006 15.2005C78.5006 14.1737 78.6999 13.2725 79.0986 12.4966C79.4972 11.7211 80.0584 11.1165 80.782 10.6832C81.51 10.2499 82.3637 10.0333 83.343 10.0333C84.0017 10.0333 84.6148 10.1394 85.1826 10.3516C85.7544 10.5598 86.2529 10.874 86.6777 11.2944C87.1065 11.7144 87.4403 12.2431 87.6783 12.8801C87.9167 13.5127 88.0361 14.254 88.0361 15.1033V15.8637H79.6056V14.1476H85.4294C85.4294 13.7489 85.3428 13.3959 85.1697 13.0883C84.9961 12.7807 84.7555 12.5401 84.4479 12.3665C84.1447 12.189 83.7913 12.1002 83.3886 12.1002C82.9683 12.1002 82.5954 12.1978 82.2705 12.3927C81.9499 12.5836 81.6986 12.8411 81.5166 13.166C81.3346 13.4869 81.2414 13.8443 81.237 14.2386V15.8703C81.237 16.364 81.328 16.7911 81.51 17.1506C81.6964 17.5102 81.9584 17.7877 82.2966 17.9826C82.6345 18.1775 83.0353 18.2751 83.4992 18.2751C83.8068 18.2751 84.0883 18.2316 84.344 18.145C84.5997 18.0585 84.8185 17.9284 85.0006 17.7552C85.1826 17.5817 85.3211 17.3695 85.4165 17.1182L87.9775 17.2873C87.8475 17.9026 87.5811 18.4398 87.178 18.8992C86.7794 19.3542 86.2635 19.7094 85.6309 19.9651C85.0028 20.2164 84.277 20.342 83.4535 20.342ZM89.8429 20.1471V10.1633H92.5273V11.9053H92.6316C92.8136 11.2856 93.119 10.8177 93.5479 10.5012C93.9771 10.1806 94.4708 10.0204 95.0301 10.0204C95.1687 10.0204 95.3182 10.0288 95.4785 10.0462C95.6388 10.0635 95.7795 10.0874 95.9011 10.1176V12.5747C95.771 12.5357 95.5912 12.501 95.3613 12.4708C95.1318 12.4402 94.9218 12.4251 94.7309 12.4251C94.3235 12.4251 93.9598 12.5139 93.6389 12.6919C93.3228 12.865 93.0711 13.1078 92.8851 13.4195C92.7031 13.7316 92.6121 14.0915 92.6121 14.4987V20.1471H89.8429ZM112.755 6.83527V20.1471H110.324L104.533 11.7686H104.436V20.1471H101.621V6.83527H104.091L109.837 15.2072H109.954V6.83527H112.755ZM119.579 20.342C118.552 20.342 117.668 20.1342 116.927 19.7183C116.19 19.2979 115.622 18.704 115.224 17.9372C114.825 17.1657 114.626 16.2535 114.626 15.2005C114.626 14.1737 114.825 13.2725 115.224 12.4966C115.622 11.7211 116.183 11.1165 116.907 10.6832C117.635 10.2499 118.489 10.0333 119.468 10.0333C120.127 10.0333 120.74 10.1394 121.308 10.3516C121.879 10.5598 122.378 10.874 122.803 11.2944C123.232 11.7144 123.565 12.2431 123.804 12.8801C124.042 13.5127 124.161 14.254 124.161 15.1033V15.8637H115.731V14.1476H121.555C121.555 13.7489 121.468 13.3959 121.295 13.0883C121.121 12.7807 120.881 12.5401 120.573 12.3665C120.27 12.189 119.917 12.1002 119.514 12.1002C119.093 12.1002 118.721 12.1978 118.396 12.3927C118.075 12.5836 117.824 12.8411 117.642 13.166C117.46 13.4869 117.367 13.8443 117.362 14.2386V15.8703C117.362 16.364 117.453 16.7911 117.635 17.1506C117.822 17.5102 118.084 17.7877 118.422 17.9826C118.76 18.1775 119.16 18.2751 119.624 18.2751C119.932 18.2751 120.213 18.2316 120.469 18.145C120.725 18.0585 120.944 17.9284 121.126 17.7552C121.308 17.5817 121.446 17.3695 121.542 17.1182L124.103 17.2873C123.973 17.9026 123.706 18.4398 123.303 18.8992C122.904 19.3542 122.389 19.7094 121.756 19.9651C121.128 20.2164 120.402 20.342 119.579 20.342ZM127.866 20.1471L125.149 10.1633H127.951L129.498 16.871H129.589L131.201 10.1633H133.95L135.588 16.8323H135.673L137.193 10.1633H139.988L137.278 20.1471H134.347L132.63 13.8683H132.507L130.791 20.1471H127.866ZM149.773 13.0102L147.238 13.166C147.194 12.9494 147.101 12.7545 146.958 12.5813C146.815 12.4034 146.627 12.2626 146.393 12.1587C146.163 12.0504 145.888 11.9963 145.567 11.9963C145.138 11.9963 144.776 12.0873 144.482 12.2693C144.187 12.4469 144.04 12.6852 144.04 12.984C144.04 13.2224 144.135 13.4239 144.326 13.5886C144.516 13.7533 144.843 13.8856 145.307 13.9851L147.114 14.3491C148.085 14.5484 148.808 14.8693 149.285 15.3111C149.762 15.7532 150 16.3338 150 17.053C150 17.7073 149.807 18.2817 149.422 18.7758C149.04 19.2695 148.516 19.6552 147.849 19.9327C147.185 20.2057 146.421 20.342 145.554 20.342C144.232 20.342 143.179 20.0668 142.395 19.5167C141.615 18.9619 141.158 18.208 141.024 17.2545L143.747 17.1116C143.829 17.5147 144.029 17.8223 144.345 18.0345C144.661 18.2427 145.067 18.3466 145.561 18.3466C146.046 18.3466 146.436 18.2534 146.73 18.0673C147.03 17.8765 147.181 17.6318 147.185 17.3327C147.181 17.0814 147.075 16.8754 146.867 16.7152C146.659 16.5505 146.338 16.4248 145.905 16.3383L144.176 15.9938C143.201 15.7985 142.475 15.4606 141.999 14.9798C141.526 14.4987 141.29 13.8856 141.29 13.1403C141.29 12.4988 141.463 11.9465 141.81 11.4827C142.161 11.0192 142.653 10.6614 143.286 10.4102C143.923 10.1589 144.668 10.0333 145.522 10.0333C146.783 10.0333 147.775 10.2996 148.499 10.8328C149.227 11.3659 149.651 12.0917 149.773 13.0102Z" fill="#F9FAFB"/>
</svg>
