<svg width="150" height="36" viewBox="0 0 150 36" fill="none" xmlns="http://www.w3.org/2000/svg">
<g clip-path="url(#clip0_824_101)">
<path d="M35.088 18.1236C35.088 27.8124 27.2328 35.6676 17.544 35.6676C7.854 35.6676 0 27.8124 0 18.1236C0 8.43359 7.8546 0.57959 17.544 0.57959C27.2328 0.57959 35.088 8.43419 35.088 18.1236Z" fill="#DA552F"/>
<path d="M19.8854 18.1236H14.915V12.8604H19.8854C20.231 12.8604 20.5732 12.9284 20.8925 13.0607C21.2118 13.1929 21.5019 13.3868 21.7463 13.6311C21.9906 13.8755 22.1845 14.1656 22.3167 14.4849C22.449 14.8042 22.517 15.1464 22.517 15.492C22.517 15.8375 22.449 16.1798 22.3167 16.499C22.1845 16.8183 21.9906 17.1084 21.7463 17.3528C21.5019 17.5972 21.2118 17.791 20.8925 17.9232C20.5732 18.0555 20.231 18.1236 19.8854 18.1236ZM19.8854 9.35156H11.4062V26.8956H14.915V21.6324H19.8854C23.2766 21.6324 26.0258 18.8832 26.0258 15.492C26.0258 12.1008 23.2766 9.35156 19.8854 9.35156Z" fill="white"/>
<path d="M53.5196 15.9792C53.5196 15.0138 52.778 14.4288 51.8144 14.4288H49.2314V17.5116H51.815C52.7786 17.5116 53.5196 16.9266 53.5196 15.9792ZM46.7852 23.9712V12.2754H52.1582C54.6566 12.2754 56.0162 13.9638 56.0162 15.9792C56.0162 17.9772 54.6392 19.665 52.1582 19.665H49.2314V23.9712H46.7852ZM57.5054 23.9712V15.4446H59.6912V16.5642C60.2942 15.8406 61.3112 15.2382 62.345 15.2382V17.3736C62.189 17.3394 62 17.3226 61.742 17.3226C61.0184 17.3226 60.053 17.7354 59.6912 18.2706V23.9712H57.5054ZM69.7034 19.596C69.7034 18.3042 68.9438 17.1846 67.5662 17.1846C66.2048 17.1846 65.4482 18.3042 65.4482 19.5966C65.4482 20.9052 66.2048 22.0248 67.5662 22.0248C68.9438 22.0248 69.7034 20.9052 69.7034 19.596ZM63.1736 19.596C63.1736 17.2368 64.8272 15.2382 67.5662 15.2382C70.3226 15.2382 71.9762 17.2362 71.9762 19.596C71.9762 21.9558 70.3226 23.9712 67.5662 23.9712C64.8272 23.9712 63.1736 21.9558 63.1736 19.596ZM79.337 21.0774V18.132C78.9752 17.58 78.1832 17.1846 77.459 17.1846C76.2026 17.1846 75.341 18.1662 75.341 19.5966C75.341 21.0426 76.2026 22.0248 77.459 22.0248C78.1832 22.0248 78.9752 21.6294 79.337 21.0774ZM79.337 23.9712V22.6968C78.6818 23.523 77.7872 23.9712 76.7702 23.9712C74.6864 23.9712 73.0844 22.3872 73.0844 19.596C73.0844 16.8924 74.6522 15.2382 76.7702 15.2382C77.7518 15.2382 78.6818 15.6522 79.337 16.5126V12.2754H81.5414V23.9712H79.337ZM89.333 23.9712V22.7136C88.7654 23.334 87.7664 23.9712 86.405 23.9712C84.5798 23.9712 83.7188 22.9722 83.7188 21.3528V15.4446H85.9052V20.4918C85.9052 21.6462 86.5082 22.0248 87.4382 22.0248C88.2818 22.0248 88.9544 21.5598 89.333 21.0768V15.4446H91.5206V23.9712H89.333ZM93.1634 19.596C93.1634 17.0472 95.0234 15.2382 97.5734 15.2382C99.2786 15.2382 100.312 15.9792 100.863 16.737L99.4328 18.0798C99.0374 17.4942 98.4344 17.1846 97.6766 17.1846C96.35 17.1846 95.4206 18.1494 95.4206 19.5966C95.4206 21.0426 96.35 22.0248 97.6766 22.0248C98.4344 22.0248 99.0374 21.6804 99.4328 21.1116L100.863 22.4556C100.312 23.2134 99.2786 23.9712 97.5734 23.9712C95.0234 23.9712 93.1634 22.1628 93.1634 19.596ZM102.744 21.6804V17.3568H101.367V15.4446H102.744V13.1706H104.932V15.4446H106.619V17.3568H104.932V21.0948C104.932 21.6288 105.207 22.0248 105.69 22.0248C106.016 22.0248 106.328 21.9042 106.447 21.7668L106.913 23.4366C106.586 23.7306 106 23.9712 105.087 23.9712C103.554 23.9712 102.744 23.1792 102.744 21.6804ZM120.631 23.9712V18.924H115.205V23.9712H112.761V12.2754H115.205V16.788H120.631V12.276H123.094V23.9712H120.631ZM130.923 23.9712V22.7136C130.354 23.334 129.355 23.9712 127.995 23.9712C126.169 23.9712 125.308 22.9722 125.308 21.3528V15.4446H127.494V20.4918C127.494 21.6462 128.097 22.0248 129.028 22.0248C129.871 22.0248 130.544 21.5598 130.923 21.0768V15.4446H133.11V23.9712H130.923ZM140.899 23.9712V18.7356C140.899 17.5812 140.298 17.1852 139.367 17.1852C138.506 17.1852 137.852 17.6676 137.472 18.15V23.9718H135.286V15.4446H137.472V16.5126C138.007 15.8928 139.04 15.2382 140.383 15.2382C142.227 15.2382 143.105 16.2714 143.105 17.8902V23.9712H140.9H140.899ZM145.711 21.6804V17.3568H144.335V15.4446H145.712V13.1706H147.9V15.4446H149.587V17.3568H147.9V21.0948C147.9 21.6288 148.175 22.0248 148.657 22.0248C148.984 22.0248 149.296 21.9042 149.416 21.7668L149.88 23.4366C149.554 23.7306 148.967 23.9712 148.054 23.9712C146.521 23.9712 145.711 23.1792 145.711 21.6804Z" fill="#DA552F"/>
</g>
<defs>
<clipPath id="clip0_824_101">
<rect width="150" height="35.4" fill="white" transform="translate(0 0.57959)"/>
</clipPath>
</defs>
</svg>
