<svg width="150" height="38" viewBox="0 0 150 38" fill="none" xmlns="http://www.w3.org/2000/svg">
<g clip-path="url(#clip0_824_111)">
<path d="M37.9424 29.2699C39.9491 27.2589 41.1926 24.4862 41.1926 21.4275C41.1927 18.4597 40.0369 15.6695 37.9383 13.5709C35.8397 11.4723 33.0495 10.3166 30.0816 10.3166L22.7798 10.3497L22.7796 10.3508C19.547 10.375 16.7532 12.6167 16.7532 15.8064C16.7532 18.3193 18.5003 20.234 21.3723 20.7846L23.6938 21.2153C24.8187 21.4309 25.5127 22.0529 25.5127 22.9145C25.5127 23.9675 24.6033 24.6857 23.1194 24.6857H10.5366C6.50902 24.3907 3.32222 21.0198 3.32222 16.9182C3.32222 12.7579 6.60102 9.34897 10.7103 9.13972C10.7103 9.13972 11.0503 9.1253 11.1041 9.12741C11.1521 6.19265 13.5856 3.9596 16.2646 3.9596C17.8706 3.9596 19.3082 4.69423 20.2591 5.84505C20.2576 5.84708 20.256 5.84899 20.2546 5.85102C20.2579 5.8511 20.2609 5.85143 20.2643 5.85151C20.2665 5.85419 20.2691 5.85581 20.2714 5.85842C20.9943 6.73091 21.3953 8.64689 21.4073 8.72102C21.6734 7.11342 23.0933 5.66544 24.8669 5.66544C25.8152 5.66544 26.6751 6.05119 27.2979 6.674L29.0152 5.27964C27.983 4.16111 26.5053 3.45952 24.8669 3.45952C24.1733 3.45952 23.5092 3.58653 22.8949 3.81637C22.8933 3.81691 22.8924 3.81677 22.8908 3.81737C21.3311 1.87989 18.9414 0.63739 16.2663 0.63739C16.2657 0.63739 16.2652 0.63739 16.2646 0.63739C12.6212 0.63739 9.50616 2.94114 8.29845 6.1683C3.52929 7.41695 0 11.763 0 16.9183C0 23.0449 4.98437 28.0292 11.111 28.0292L23.0362 28.036C23.0482 28.036 23.0595 28.0364 23.0715 28.0364C23.0769 28.0364 23.082 28.0361 23.0873 28.0361L23.3321 28.0364L23.3321 28.0309C27.211 27.917 29.342 25.274 29.342 22.6754C29.342 20.258 27.6667 18.1759 24.4357 17.5775L22.1621 17.1467C20.9894 16.9314 20.4868 16.3329 20.4868 15.5192C20.4868 14.5857 21.3962 13.7003 22.8083 13.7003C22.8575 13.7003 28.0774 13.645 30.3802 13.645C32.683 13.645 34.1887 14.5196 35.5891 15.92C37.0602 17.3912 37.8704 19.3471 37.8704 21.4275C37.8704 24.4896 36.0951 27.1598 33.5199 28.441C32.4827 28.9449 31.3173 29.227 30.0913 29.227L29.9672 29.229C29.9672 32.0854 27.6434 34.4092 24.7871 34.4092C23.1804 34.4092 21.7422 33.6739 20.7913 32.5222L17.7749 34.0326C19.3089 36.2648 21.8799 37.7314 24.7871 37.7314C28.3505 37.7314 31.4073 35.527 32.6697 32.411C32.6959 32.348 32.722 32.2832 32.748 32.2143C32.8878 32.1798 33.0263 32.1419 33.164 32.1021C33.2076 32.0895 33.2507 32.0757 33.2941 32.0626C33.3885 32.034 33.4826 32.0046 33.576 31.9736C33.6254 31.9571 33.6746 31.9401 33.7237 31.923C33.8123 31.8922 33.9003 31.8603 33.9878 31.8273C34.0354 31.8093 34.0831 31.7915 34.1304 31.7729C34.2254 31.7356 34.3196 31.6966 34.4133 31.6568C34.4505 31.641 34.488 31.6259 34.525 31.6097C34.6543 31.5531 34.7825 31.4943 34.9092 31.4329C34.9312 31.4223 34.9527 31.4108 34.9746 31.4C35.0793 31.3484 35.1832 31.2955 35.2861 31.2407C35.3284 31.2182 35.3701 31.1948 35.4121 31.1717C35.4945 31.1264 35.5765 31.0804 35.6577 31.0331C35.7025 31.007 35.7471 30.9805 35.7915 30.9538C35.8711 30.9059 35.9498 30.8569 36.0281 30.8072C36.0695 30.7808 36.1111 30.7547 36.1522 30.7279C36.2424 30.6688 36.3313 30.6081 36.4196 30.5466C36.4464 30.5279 36.4737 30.51 36.5002 30.4912C36.6141 30.4103 36.7262 30.3274 36.8368 30.2425C36.865 30.2208 36.8924 30.1982 36.9204 30.1763C37.0028 30.1117 37.0846 30.0464 37.1651 29.9796C37.2031 29.9481 37.2404 29.916 37.278 29.884C37.3481 29.8243 37.4175 29.7638 37.4861 29.7024C37.5246 29.668 37.5628 29.6334 37.6008 29.5984C37.6699 29.5348 37.7379 29.4701 37.8054 29.4048C37.839 29.3722 37.8729 29.3401 37.9061 29.3071C37.9184 29.2949 37.9312 29.2832 37.9435 29.2709L37.9424 29.2699Z" fill="#6800DE"/>
<path d="M47.3145 24.4483H51.9426C53.1316 24.4483 54.0154 23.7177 54.0154 22.8739C54.0154 22.1835 53.3042 21.53 52.4028 21.3573L50.5425 21.0121C48.2411 20.5709 46.9961 19.1916 46.9961 17.178C46.9961 14.6219 49.0798 12.9806 51.6702 12.9612L51.6704 12.9603L57.5216 12.9338L55.9014 15.2909C55.9014 15.2909 51.7327 15.3352 51.6932 15.3352C50.5617 15.3352 49.6779 16.1998 49.6779 16.9478C49.6779 17.5999 50.2357 18.0794 51.1754 18.2519L52.9974 18.7522C55.5864 19.2318 56.7739 20.7451 56.7739 22.6823C56.7739 24.7647 55.2213 26.7276 52.113 26.8189L47.2007 26.8206L47.3145 24.4483Z" fill="white"/>
<path d="M6.18285 22.9393C7.38858 23.9293 8.89581 24.565 10.5438 24.6858H23.1267C24.6105 24.6858 25.52 23.9675 25.52 22.9145C25.52 22.0529 24.8259 21.4309 23.7011 21.2153L21.3795 20.7846C18.5076 20.234 16.7604 18.3193 16.7604 15.8064C16.7604 12.6167 19.5542 10.375 22.7869 10.3508L22.7871 10.3497L30.0889 10.3166C33.0567 10.3166 35.8469 11.4723 37.9455 13.5709L35.5964 15.9201C34.1959 14.5196 32.6902 13.645 30.3875 13.645C28.0847 13.645 22.8647 13.7003 22.8155 13.7003C21.4035 13.7003 20.494 14.5857 20.494 15.5192C20.494 16.333 20.9966 16.9314 22.1693 17.1467L24.443 17.5775C27.6739 18.1759 29.3493 20.258 29.3493 22.6754C29.3493 25.274 27.2183 27.917 23.3393 28.0309L23.3394 28.0364L23.0946 28.0361C23.0892 28.0361 23.0842 28.0364 23.0788 28.0364C23.0667 28.0364 23.0554 28.036 23.0434 28.036L11.1182 28.0292C8.43784 28.0292 5.97608 27.0752 4.05469 25.4889L6.18285 22.9393Z" fill="url(#paint0_linear_824_111)"/>
<path d="M28.7599 5.02069C29.8387 6.04954 30.5119 7.50016 30.5119 9.10504V10.0331H28.3037L28.3059 9.10504C28.3059 8.0833 27.8581 7.16418 27.1484 6.53365L28.7599 5.02069Z" fill="url(#paint1_linear_824_111)"/>
<path d="M59.8695 16.0636C59.6582 16.0636 59.4565 16.0234 59.2641 15.9424C59.0714 15.8618 58.9037 15.75 58.7611 15.6071C58.6181 15.4646 58.5064 15.2997 58.4258 15.1135C58.3449 14.9271 58.3047 14.7223 58.3047 14.4987C58.3047 14.2751 58.3449 14.0701 58.4258 13.8839C58.5064 13.6976 58.6181 13.5331 58.7611 13.3902C58.9037 13.2477 59.0714 13.1359 59.2641 13.0549C59.4565 12.9743 59.6582 12.9338 59.8695 12.9338C60.3041 12.9338 60.6767 13.0861 60.9873 13.3902C61.2976 13.6947 61.4531 14.0641 61.4531 14.4987C61.4531 14.9336 61.2976 15.303 60.9873 15.6071C60.6767 15.9116 60.3041 16.0636 59.8695 16.0636ZM58.6586 26.4216V17.2932H61.0991V26.4216H58.6586Z" fill="white"/>
<path d="M63.3359 26.4215V13.0827H65.7764V26.4215H63.3359Z" fill="white"/>
<path d="M66.8945 17.2932H69.6703L71.9431 23.1055H72.0736L74.365 17.2932H77.1222L73.1913 26.4216H70.7881L66.8945 17.2932Z" fill="white"/>
<path d="M86.6033 24.2231C86.1809 24.9683 85.6127 25.5708 84.8987 26.0302C84.1844 26.4895 83.312 26.7194 82.2812 26.7194C81.5855 26.7194 80.9428 26.5984 80.3531 26.3562C79.763 26.114 79.2507 25.7758 78.8161 25.3408C78.3812 24.9062 78.043 24.394 77.8008 23.8039C77.5586 23.2143 77.4375 22.5651 77.4375 21.8572C77.4375 21.199 77.5554 20.575 77.7915 19.9849C78.0273 19.3952 78.3565 18.8797 78.7788 18.4387C79.201 17.9979 79.701 17.6469 80.2786 17.386C80.856 17.1252 81.4924 16.9948 82.1881 16.9948C82.9207 16.9948 83.5728 17.116 84.1442 17.3582C84.7152 17.6004 85.1935 17.9356 85.5786 18.3641C85.9635 18.7925 86.2554 19.2989 86.4541 19.8825C86.6528 20.4664 86.7523 21.0998 86.7523 21.7826V22.0062C86.7397 22.0808 86.7337 22.1491 86.7337 22.2112C86.7211 22.2735 86.7149 22.3416 86.7149 22.416H79.8408C79.8902 22.7886 79.9927 23.1085 80.1482 23.3755C80.3033 23.6427 80.4957 23.8662 80.7257 24.0461C80.9553 24.2263 81.2069 24.3567 81.4801 24.4373C81.7532 24.5182 82.0326 24.5585 82.3185 24.5585C82.8774 24.5585 83.3399 24.4312 83.7064 24.1765C84.0726 23.9221 84.3613 23.6023 84.5727 23.2171L86.6033 24.2231ZM84.3864 20.6835C84.3738 20.5222 84.3212 20.342 84.228 20.1433C84.1348 19.9448 83.9981 19.7584 83.8181 19.5843C83.638 19.4106 83.4144 19.2677 83.1475 19.1559C82.8803 19.0441 82.5607 18.9883 82.1881 18.9883C81.6664 18.9883 81.2069 19.1373 80.8095 19.4353C80.4118 19.7335 80.1324 20.1496 79.9712 20.6835L84.3864 20.6835Z" fill="white"/>
<path d="M88.3164 17.293H90.6079V18.5597H90.7569C90.8687 18.3361 91.0177 18.1313 91.2041 17.945C91.3903 17.7586 91.5981 17.5966 91.8281 17.458C92.0578 17.3197 92.3061 17.208 92.5732 17.1226C92.8402 17.0376 93.104 16.9948 93.3651 16.9948C93.688 16.9948 93.9642 17.0295 94.1941 17.0984C94.4237 17.1674 94.6192 17.2571 94.7808 17.3674L94.1288 19.5471C93.9799 19.4725 93.815 19.4138 93.635 19.3701C93.455 19.3267 93.2347 19.3049 92.9738 19.3049C92.6384 19.3049 92.3341 19.3707 92.061 19.5017C91.7877 19.6327 91.5547 19.817 91.3624 20.0542C91.1697 20.2914 91.0206 20.5691 90.9153 20.8875C90.8095 21.2059 90.7569 21.5524 90.7569 21.9268V26.4214H88.3164V17.293Z" fill="white"/>
<path d="M95.9922 26.4215V13.0827H98.4327V26.4215H95.9922Z" fill="white"/>
<path d="M101.877 16.0636C101.666 16.0636 101.464 16.0234 101.272 15.9424C101.079 15.8618 100.912 15.75 100.769 15.6071C100.626 15.4646 100.514 15.2997 100.434 15.1135C100.353 14.9271 100.312 14.7223 100.312 14.4987C100.312 14.2751 100.353 14.0701 100.434 13.8839C100.514 13.6976 100.626 13.5331 100.769 13.3902C100.912 13.2477 101.079 13.1359 101.272 13.0549C101.464 12.9743 101.666 12.9338 101.877 12.9338C102.312 12.9338 102.684 13.0861 102.995 13.3902C103.305 13.6947 103.461 14.0641 103.461 14.4987C103.461 14.9336 103.305 15.303 102.995 15.6071C102.684 15.9116 102.312 16.0636 101.877 16.0636ZM100.666 26.4216V17.2932H103.107V26.4216H100.666Z" fill="white"/>
<path d="M107.635 18.4852H107.784C108.07 18.0259 108.455 17.6627 108.939 17.3954C109.424 17.1285 109.976 16.9948 110.597 16.9948C111.169 16.9948 111.671 17.088 112.106 17.2744C112.541 17.4606 112.898 17.7246 113.178 18.0661C113.457 18.4079 113.668 18.8177 113.811 19.2957C113.954 19.7738 114.025 20.3048 114.025 20.8884V26.4214H111.585V21.1864C111.585 20.5284 111.439 20.0408 111.147 19.7241C110.855 19.4073 110.43 19.2491 109.871 19.2491C109.536 19.2491 109.24 19.3206 108.986 19.4633C108.731 19.6062 108.514 19.7987 108.334 20.0408C108.154 20.283 108.017 20.5688 107.924 20.8978C107.831 21.227 107.784 21.5778 107.784 21.9504V26.4214H105.344V17.293H107.635V18.4852Z" fill="white"/>
<path d="M117.397 16.0636C117.186 16.0636 116.984 16.0234 116.791 15.9424C116.599 15.8618 116.431 15.75 116.288 15.6071C116.145 15.4646 116.034 15.2997 115.953 15.1135C115.872 14.9271 115.832 14.7223 115.832 14.4987C115.832 14.2751 115.872 14.0701 115.953 13.8839C116.034 13.6976 116.145 13.5331 116.288 13.3902C116.431 13.2477 116.599 13.1359 116.791 13.0549C116.984 12.9743 117.186 12.9338 117.397 12.9338C117.831 12.9338 118.204 13.0861 118.515 13.3902C118.825 13.6947 118.98 14.0641 118.98 14.4987C118.98 14.9336 118.825 15.303 118.515 15.6071C118.204 15.9116 117.831 16.0636 117.397 16.0636ZM116.186 26.4216V17.2932H118.626V26.4216H116.186Z" fill="white"/>
<path d="M123.151 18.4852H123.3C123.585 18.0259 123.971 17.6627 124.455 17.3954C124.939 17.1285 125.492 16.9948 126.113 16.9948C126.684 16.9948 127.187 17.088 127.622 17.2744C128.056 17.4606 128.414 17.7246 128.693 18.0661C128.973 18.4079 129.184 18.8177 129.327 19.2957C129.469 19.7738 129.541 20.3048 129.541 20.8884V26.4214H127.1V21.1864C127.1 20.5284 126.954 20.0408 126.663 19.7241C126.371 19.4073 125.945 19.2491 125.386 19.2491C125.051 19.2491 124.756 19.3206 124.502 19.4633C124.247 19.6062 124.029 19.7987 123.849 20.0408C123.669 20.283 123.533 20.5688 123.44 20.8978C123.346 21.227 123.3 21.5778 123.3 21.9504V26.4214H120.859V17.293H123.151V18.4852Z" fill="white"/>
<path d="M135.669 30.7434C135.024 30.7434 134.449 30.6596 133.946 30.492C133.443 30.3242 133.005 30.1069 132.633 29.8399C132.26 29.5727 131.95 29.2779 131.701 28.9551C131.453 28.6319 131.273 28.3091 131.161 27.9863L133.49 27.0548C133.664 27.5391 133.949 27.9146 134.347 28.1819C134.744 28.4488 135.185 28.5825 135.669 28.5825C136.439 28.5825 137.048 28.3324 137.495 27.8329C137.942 27.3331 138.166 26.6453 138.166 25.7694V25.136H138.017C137.731 25.5336 137.355 25.847 136.89 26.0768C136.424 26.3067 135.874 26.4214 135.241 26.4214C134.694 26.4214 134.163 26.3108 133.648 26.0895C133.133 25.8683 132.676 25.5516 132.279 25.1395C131.881 24.7276 131.558 24.2325 131.31 23.6543C131.062 23.0763 130.938 22.4307 130.938 21.7174C130.938 21.0043 131.062 20.3555 131.31 19.7713C131.558 19.1871 131.881 18.6889 132.279 18.2769C132.676 17.8649 133.133 17.5482 133.648 17.327C134.163 17.1057 134.694 16.9948 135.241 16.9948C135.874 16.9948 136.424 17.1098 136.89 17.3396C137.355 17.5695 137.731 17.8829 138.017 18.2803H138.166V17.293H140.494V25.7694C140.494 26.5392 140.376 27.2318 140.14 27.8465C139.905 28.4613 139.575 28.9829 139.153 29.4115C138.731 29.8399 138.225 30.1689 137.635 30.3988C137.045 30.6284 136.39 30.7434 135.669 30.7434ZM135.763 24.2231C136.061 24.2231 136.355 24.1683 136.647 24.0587C136.939 23.9488 137.197 23.7874 137.421 23.574C137.644 23.3607 137.824 23.0984 137.961 22.7875C138.097 22.4766 138.166 22.1198 138.166 21.7171C138.166 21.3149 138.097 20.9554 137.961 20.6381C137.824 20.3212 137.644 20.056 137.421 19.8425C137.197 19.6292 136.939 19.4677 136.647 19.3578C136.355 19.2482 136.061 19.1931 135.763 19.1931C135.464 19.1931 135.173 19.2482 134.887 19.3578C134.601 19.4677 134.347 19.6321 134.123 19.8516C133.9 20.0711 133.719 20.3366 133.583 20.6475C133.446 20.9583 133.378 21.3149 133.378 21.7171C133.378 22.1198 133.446 22.4766 133.583 22.7875C133.719 23.0984 133.9 23.3607 134.123 23.574C134.347 23.7874 134.601 23.9488 134.887 24.0587C135.173 24.1683 135.464 24.2231 135.763 24.2231Z" fill="white"/>
<path d="M146.105 26.7194C145.509 26.7194 144.978 26.645 144.512 26.496C144.046 26.3468 143.642 26.1512 143.301 25.909C142.959 25.6668 142.671 25.3874 142.435 25.0708C142.199 24.7541 142.018 24.4344 141.895 24.1113L144.074 23.1799C144.285 23.652 144.568 24.0027 144.922 24.2325C145.276 24.4624 145.67 24.5771 146.105 24.5771C146.552 24.5771 146.906 24.4964 147.167 24.3349C147.427 24.1736 147.558 23.9809 147.558 23.7573C147.558 23.5091 147.449 23.3073 147.232 23.1519C147.014 22.9967 146.639 22.8571 146.105 22.7327L144.819 22.4533C144.533 22.3913 144.239 22.2921 143.934 22.1552C143.63 22.0187 143.354 21.8449 143.105 21.6336C142.857 21.4226 142.652 21.1678 142.491 20.8698C142.329 20.5717 142.249 20.2242 142.249 19.8265C142.249 19.3795 142.345 18.9821 142.537 18.6343C142.73 18.2867 142.994 17.9916 143.329 17.7494C143.664 17.5072 144.058 17.3208 144.512 17.1904C144.965 17.06 145.453 16.9948 145.974 16.9948C146.844 16.9948 147.62 17.1658 148.303 17.5072C148.986 17.8489 149.489 18.3921 149.812 19.1373L147.707 19.9943C147.533 19.6341 147.278 19.3733 146.943 19.2117C146.608 19.0505 146.272 18.9695 145.937 18.9695C145.589 18.9695 145.285 19.0412 145.024 19.1839C144.763 19.3267 144.633 19.5099 144.633 19.7335C144.633 19.9448 144.742 20.1124 144.959 20.2364C145.176 20.3606 145.471 20.4724 145.844 20.5717L147.241 20.907C148.173 21.1306 148.865 21.4878 149.318 21.9782C149.772 22.4691 149.998 23.0495 149.998 23.7201C149.998 24.1178 149.905 24.4964 149.719 24.8565C149.533 25.2168 149.269 25.5364 148.927 25.816C148.585 26.0954 148.176 26.316 147.698 26.4772C147.219 26.6385 146.688 26.7194 146.105 26.7194Z" fill="white"/>
<path d="M20.7907 32.5221C20.0511 31.6263 19.6063 30.4785 19.6063 29.2289L19.6391 28.5685L16.2656 28.581L16.2841 29.2289C16.2841 31.1676 16.9364 32.9569 18.033 34.3888L20.7907 32.5221Z" fill="url(#paint2_linear_824_111)"/>
</g>
<defs>
<linearGradient id="paint0_linear_824_111" x1="4.05469" y1="19.1765" x2="37.9455" y2="19.1765" gradientUnits="userSpaceOnUse">
<stop offset="0.04624" stop-color="#6800DE"/>
<stop offset="0.15723" stop-color="#980BC5"/>
<stop offset="0.27497" stop-color="#C415AF"/>
<stop offset="0.38057" stop-color="#E41C9F"/>
<stop offset="0.46906" stop-color="#F72195"/>
<stop offset="0.52966" stop-color="#FF2392"/>
<stop offset="0.58055" stop-color="#F42097"/>
<stop offset="0.66747" stop-color="#D91AA4"/>
<stop offset="0.77988" stop-color="#AD10BB"/>
<stop offset="0.91213" stop-color="#7002D9"/>
<stop offset="0.93032" stop-color="#6800DE"/>
</linearGradient>
<linearGradient id="paint1_linear_824_111" x1="29.1016" y1="9.35857" x2="28.5882" y2="6.03455" gradientUnits="userSpaceOnUse">
<stop stop-color="#6800DE" stop-opacity="0"/>
<stop offset="0.87323" stop-color="#6800DE"/>
</linearGradient>
<linearGradient id="paint2_linear_824_111" x1="18.3441" y1="29.0319" x2="18.7696" y2="33.5368" gradientUnits="userSpaceOnUse">
<stop stop-color="#6800DE" stop-opacity="0"/>
<stop offset="0.87323" stop-color="#6800DE"/>
</linearGradient>
<clipPath id="clip0_824_111">
<rect width="150" height="37.094" fill="white" transform="translate(0 0.636902)"/>
</clipPath>
</defs>
</svg>
