<svg width="87" height="61" viewBox="0 0 87 61" fill="none" xmlns="http://www.w3.org/2000/svg">
<g clip-path="url(#clip0_418_694)">
<path d="M34.7621 41.5265L57.7302 29.6264L34.7621 17.643V41.5265Z" fill="white"/>
<path d="M85.1924 13.5069C85.1924 13.5069 84.3602 7.64838 81.8137 5.06863C78.5849 1.68166 74.9566 1.66502 73.3005 1.4653C61.4004 0.608154 43.5585 0.608154 43.5585 0.608154H43.5252C43.5252 0.608154 25.6833 0.608154 13.7831 1.4653C12.1271 1.66502 8.4988 1.68166 5.26995 5.06863C2.72348 7.64838 1.8913 13.5069 1.8913 13.5069C1.8913 13.5069 1.04248 20.3807 1.04248 27.2628V33.7122C1.04248 40.5943 1.8913 47.4681 1.8913 47.4681C1.8913 47.4681 2.72348 53.3266 5.26995 55.9063C8.50712 59.2933 12.7512 59.1851 14.6403 59.543C21.4392 60.1921 43.5418 60.4001 43.5418 60.4001C43.5418 60.4001 61.4004 60.3751 73.3005 59.5097C74.9649 59.31 78.5849 59.2933 81.8137 55.9063C84.3602 53.3266 85.1924 47.4681 85.1924 47.4681C85.1924 47.4681 86.0412 40.586 86.0412 33.7122V27.2628C86.0412 20.3807 85.1924 13.5069 85.1924 13.5069ZM34.7623 41.5263V17.6428L57.7305 29.6262L34.7623 41.5263Z" fill="url(#paint0_linear_418_694)"/>
</g>
<defs>
<linearGradient id="paint0_linear_418_694" x1="86.0412" y1="60.4001" x2="1.04248" y2="60.4001" gradientUnits="userSpaceOnUse">
<stop stop-color="#3BA8EA"/>
<stop offset="1" stop-color="#14A0B4"/>
</linearGradient>
<clipPath id="clip0_418_694">
<rect width="85.215" height="60" fill="white" transform="translate(0.892456 0.5)"/>
</clipPath>
</defs>
</svg>
